<svg width="221" height="383" viewBox="0 0 221 383" fill="none" xmlns="http://www.w3.org/2000/svg">
<path d="M108.574 0C150.068 17.4998 187.591 73.4819 205.593 113.165C222.958 157.489 227.084 209.997 209.342 254.885C208.417 257.361 207.492 259.838 206.539 262.389C203.696 269.63 200.616 276.683 197.345 283.739C196.343 285.909 195.341 288.079 194.309 290.314C185.279 308.31 173.145 322.818 159.855 337.742C156.783 341.196 153.754 344.689 150.729 348.184C126.355 376.035 126.355 376.035 115.772 382.327C103.443 381.393 95.4889 371.158 86.9808 363.09C85.8121 361.997 84.6434 360.904 83.4393 359.778C36.5139 315.621 4.34589 261.312 0.0367128 195.681C-1.20197 131.845 29.0276 80.0169 71.9739 34.4753C83.6338 22.3527 95.7695 10.9109 108.574 0Z" fill="#E5765B"/>
<path d="M86.8706 252.753C83.8196 252.753 81.28 255.265 82.0495 258.218C83.2447 262.803 85.9306 267.045 89.8555 270.42C95.3038 275.106 102.693 277.738 110.398 277.738C118.104 277.738 125.493 275.106 130.941 270.42C134.866 267.045 137.552 262.803 138.747 258.218C139.517 255.265 136.977 252.753 133.926 252.753C130.875 252.753 128.49 255.322 127.284 258.125C126.391 260.2 124.983 262.107 123.129 263.702C119.753 266.605 115.173 268.237 110.398 268.237C105.624 268.237 101.044 266.605 97.668 263.702C95.8136 262.107 94.4055 260.2 93.5129 258.125C92.3074 255.322 89.9215 252.753 86.8706 252.753Z" fill="#1D2223"/>
<path d="M77.3628 177.218C80.8462 177.218 83.7704 174.294 82.449 171.071C81.4432 168.617 79.8376 166.363 77.7137 164.482C73.8999 161.104 68.7272 159.206 63.3336 159.206C57.94 159.206 52.7673 161.104 48.9535 164.482C46.8296 166.363 45.2241 168.617 44.2182 171.071C42.8968 174.294 45.821 177.218 49.3044 177.218H50.1091C53.1482 177.218 55.5985 174.397 57.8735 172.382C59.3216 171.1 61.2857 170.379 63.3336 170.379C65.3815 170.379 67.3456 171.1 68.7937 172.382C71.0687 174.397 73.519 177.218 76.5581 177.218H77.3628Z" fill="#1D2223"/>
<path d="M168.005 177.218C171.489 177.218 174.413 174.294 173.092 171.071C172.086 168.617 170.48 166.363 168.356 164.482C164.542 161.104 159.37 159.206 153.976 159.206C148.583 159.206 143.41 161.104 139.596 164.482C137.472 166.363 135.867 168.617 134.861 171.071C133.539 174.294 136.464 177.218 139.947 177.218H140.752C143.791 177.218 146.241 174.397 148.516 172.382C149.964 171.1 151.928 170.379 153.976 170.379C156.024 170.379 157.988 171.1 159.436 172.382C161.711 174.397 164.162 177.218 167.201 177.218H168.005Z" fill="#1D2223"/>
</svg>
