<svg width="97" height="133" viewBox="0 0 97 133" fill="none" xmlns="http://www.w3.org/2000/svg">
<path d="M45.0196 61.5884C47.3392 61.5884 49.6588 61.5884 52.0487 61.5884C52.0487 67.4426 52.0487 73.2968 52.0487 79.3284C53.3378 79.3214 54.6269 79.3144 55.955 79.3072C60.2101 79.285 64.4652 79.2702 68.7204 79.2591C71.3008 79.2522 73.8811 79.2428 76.4614 79.2274C78.7105 79.2141 80.9595 79.2055 83.2087 79.2025C84.3995 79.2007 85.5903 79.1966 86.7811 79.1869C88.1106 79.1761 89.4401 79.1758 90.7696 79.1764C91.1642 79.1716 91.5588 79.1668 91.9654 79.1619C94.6347 79.1754 94.6347 79.1754 95.9661 79.9655C96.9135 81.0735 97.0122 81.8691 96.9989 83.332C96.8465 84.3932 96.3141 84.9581 95.562 85.6881C94.7182 86.11 94.1429 86.064 93.1982 86.063C92.8397 86.0635 92.4811 86.064 92.1116 86.0644C91.7165 86.0632 91.3214 86.062 90.9144 86.0608C90.4996 86.0608 90.0849 86.0609 89.6577 86.0609C88.5187 86.0608 87.3798 86.0591 86.2409 86.0567C85.0512 86.0546 83.8616 86.0544 82.672 86.0541C80.4185 86.053 78.165 86.0503 75.9115 86.0469C73.3463 86.0432 70.7811 86.0413 68.2159 86.0396C62.9384 86.0361 57.6609 86.0303 52.3834 86.0228C52.803 86.8769 53.2242 87.7301 53.6464 88.5829C53.764 88.8225 53.8815 89.0622 54.0026 89.3091C57.0181 95.3853 62.0418 99.6407 67.4226 103.585C68.0605 104.057 68.6887 104.539 69.3141 105.027C75.3322 109.699 81.828 113.937 88.405 117.776C90.0066 118.733 91.1657 119.609 92.2148 121.168C92.4335 122.151 92.2541 122.917 91.8801 123.846C90.8281 125.078 90.2363 125.479 88.6205 125.658C86.9718 125.611 85.9535 124.909 84.6418 123.971C84.1414 123.631 83.6407 123.29 83.1395 122.95C82.8752 122.769 82.6109 122.587 82.3385 122.4C81.1809 121.62 79.9987 120.881 78.8155 120.141C75.2129 117.883 71.7074 115.51 68.2488 113.038C67.4526 112.47 66.6532 111.907 65.8532 111.345C61.3698 108.174 56.6225 104.8 53.3248 100.348C53.1474 100.109 52.9701 99.8703 52.7874 99.6243C52.6541 99.4436 52.5207 99.263 52.3834 99.0768C52.3829 99.4581 52.3824 99.8395 52.3819 100.232C52.3763 103.828 52.362 107.423 52.3392 111.018C52.3277 112.866 52.3193 114.714 52.3179 116.563C52.3165 118.347 52.307 120.131 52.2919 121.915C52.2875 122.595 52.2861 123.275 52.2876 123.956C52.2892 124.909 52.2805 125.862 52.2694 126.816C52.2723 127.097 52.2752 127.378 52.2781 127.667C52.2509 129.06 52.1306 129.943 51.2412 131.047C50.1981 132.049 49.7257 132.2 48.3419 132.27C47.3344 132.182 46.7861 131.863 46.0237 131.21C44.8541 129.709 44.8717 128.404 44.8749 126.581C44.8697 126.14 44.8697 126.14 44.8645 125.69C44.8544 124.721 44.8513 123.752 44.8483 122.783C44.8427 122.11 44.8366 121.437 44.8301 120.764C44.8142 118.995 44.8042 117.226 44.7955 115.457C44.7855 113.65 44.7699 111.844 44.7548 110.038C44.726 106.496 44.7035 102.954 44.6849 99.4115C44.4134 99.7318 44.1418 100.052 43.8621 100.382C43.5001 100.807 43.138 101.233 42.7759 101.658C42.5977 101.868 42.4194 102.079 42.2358 102.296C35.8649 109.764 26.5487 115.078 18.3678 120.323C17.5603 120.841 16.7549 121.363 15.9501 121.886C15.6912 122.054 15.4322 122.222 15.1654 122.396C14.6809 122.71 14.1963 123.025 13.7118 123.34C13.1034 123.734 12.4931 124.125 11.8825 124.515C11.4314 124.809 11.4314 124.809 10.9712 125.109C9.81456 125.732 8.80907 125.806 7.53116 125.52C6.54792 124.704 6.54792 124.704 5.85757 123.846C5.74711 123.735 5.63665 123.625 5.52285 123.511C5.28709 121.193 5.28709 121.193 6.15829 119.865C7.38072 118.496 8.95746 117.7 10.5436 116.817C16.6329 113.318 22.354 109.34 27.949 105.102C28.3408 104.806 28.3408 104.806 28.7405 104.505C32.0988 101.967 35.3262 99.3567 38.3252 96.3991C38.6031 96.1255 38.881 95.852 39.1672 95.5701C41.7558 92.8671 43.361 89.6863 45.0196 86.3575C44.8058 86.3584 44.592 86.3594 44.3718 86.3603C39.1672 86.3825 33.9626 86.3991 28.758 86.4095C26.241 86.4147 23.7241 86.4218 21.2072 86.4333C19.0132 86.4433 16.8191 86.4498 14.6251 86.452C13.4636 86.4533 12.3022 86.4564 11.1407 86.4637C9.84332 86.4718 8.54599 86.472 7.24857 86.4715C6.86456 86.4751 6.48055 86.4787 6.0849 86.4825C4.20624 86.4751 2.77406 86.4568 1.17151 85.3534C0.439974 84.4511 0.194585 83.8397 0 82.6965C0.235675 81.253 0.823717 80.7046 1.84095 79.6632C2.68472 79.2413 3.2601 79.2873 4.2047 79.2882C4.7426 79.2875 4.7426 79.2875 5.29137 79.2868C5.68645 79.288 6.08154 79.2892 6.48859 79.2904C6.90331 79.2904 7.31802 79.2903 7.7453 79.2903C8.88425 79.2905 10.0232 79.2922 11.1621 79.2945C12.3517 79.2966 13.5414 79.2968 14.731 79.2972C16.9845 79.2982 19.238 79.301 21.4915 79.3043C24.0566 79.3081 26.6218 79.3099 29.187 79.3116C34.4646 79.3151 39.7421 79.3212 45.0196 79.3284C45.0196 73.4742 45.0196 67.62 45.0196 61.5884Z" fill="#E5765B"/>
<path d="M48.3669 0C54.1558 2.43598 59.3906 10.2287 61.9021 15.7527C64.3248 21.9226 64.9003 29.2317 62.4251 35.4801C62.2961 35.8249 62.1671 36.1696 62.0341 36.5248C61.6374 37.5327 61.2078 38.5144 60.7515 39.4967C60.6117 39.7988 60.4719 40.1008 60.3279 40.412C59.0681 42.917 57.3753 44.9365 55.5212 47.014C55.0926 47.4948 54.6701 47.9809 54.248 48.4674C50.8476 52.3444 50.8476 52.3444 49.3711 53.2202C47.6511 53.0902 46.5414 51.6654 45.3545 50.5424C45.1914 50.3903 45.0284 50.2381 44.8604 50.0814C38.3138 43.9347 33.826 36.3749 33.2248 27.239C33.052 18.353 37.2694 11.1384 43.2608 4.79899C44.8875 3.11152 46.5806 1.51881 48.3669 0Z" fill="#E5765B"/>
<path d="M1.50628 36.8189C9.84461 36.3925 17.7544 39.4292 23.9415 44.9358C29.3304 49.8635 32.9728 57.003 33.3633 64.3717C33.3666 65.2321 33.3518 66.0846 33.3045 66.9435C24.9595 67.2396 17.3748 64.7994 11.1085 59.1195C5.83041 54.1491 1.72459 47.1514 1.46836 39.7385C1.46495 38.7641 1.47616 37.7928 1.50628 36.8189Z" fill="#E5765B"/>
<path d="M95.8968 37.154C96.4302 44.1474 93.0829 51.5014 88.6233 56.7153C88.3726 56.998 88.1219 57.2806 87.8636 57.5718C87.6578 57.8095 87.452 58.0472 87.2399 58.2922C82.6915 63.2107 75.6565 66.1678 69.1194 66.9439C68.234 66.9657 67.3482 66.9726 66.4626 66.9648C66.2337 66.9633 66.0048 66.9618 65.769 66.9602C65.2122 66.9563 64.6554 66.9503 64.0986 66.9439C64.3698 58.2678 67.5224 50.7193 73.8395 44.6943C80.2824 39.0763 87.4821 37.0462 95.8968 37.154Z" fill="#E5765B"/>
<path d="M48.3669 9.0376C51.3853 10.0437 53.8354 15.0453 55.396 17.7403C55.9375 18.8356 56.3727 19.9211 56.7348 21.0874C56.8468 21.4389 56.8468 21.4389 56.961 21.7974C58.3517 26.9531 57.1447 32.0899 54.7122 36.6989C53.1194 39.433 51.1707 41.8552 49.0363 44.183C47.4114 43.4785 46.6301 42.3037 45.5845 40.9195C45.295 40.5365 45.295 40.5365 44.9996 40.1458C41.3265 35.1758 39.4498 30.0096 39.9989 23.7652C40.9369 17.7499 44.3731 13.4234 48.3669 9.0376Z" fill="#1F1F1F"/>
</svg>
