<svg width="730" height="517" viewBox="0 0 730 517" fill="none" xmlns="http://www.w3.org/2000/svg">
<path d="M362.066 0C406.757 18.8061 447.171 78.9672 466.56 121.613C485.263 169.245 489.706 225.673 470.597 273.912C469.601 276.573 468.605 279.235 467.579 281.977C464.516 289.758 461.199 297.337 457.677 304.92C456.598 307.252 455.519 309.584 454.407 311.986C444.681 331.325 431.613 346.916 417.298 362.955C413.99 366.667 410.728 370.42 407.469 374.175C381.218 404.106 381.218 404.106 369.819 410.867C356.54 409.864 347.973 398.865 338.81 390.195C337.551 389.02 336.292 387.846 334.995 386.635C284.455 339.182 249.809 280.819 245.167 210.289C243.833 141.688 276.392 85.9901 322.647 37.0489C335.205 24.0214 348.276 11.7254 362.066 0Z" fill="white"/>
<path d="M0.297284 284.248C64.6704 280.956 125.735 304.4 173.501 346.912C215.103 384.955 243.223 440.072 246.238 496.96C246.264 503.602 246.149 510.183 245.784 516.815C181.36 519.1 122.805 500.261 74.4278 456.412C33.6801 418.04 1.98266 364.017 0.00455723 306.788C-0.0217768 299.265 0.064746 291.767 0.297284 284.248Z" fill="white"/>
<path d="M729.003 286.832C733.121 340.822 707.279 397.596 672.85 437.849C670.915 440.031 668.98 442.212 666.986 444.46C665.397 446.296 663.808 448.131 662.171 450.022C627.056 487.994 572.745 510.823 522.278 516.814C515.443 516.983 508.604 517.036 501.767 516.976C499.999 516.964 498.232 516.953 496.412 516.941C492.113 516.91 487.815 516.864 483.517 516.814C485.61 449.834 509.949 391.559 558.717 345.044C608.457 301.672 664.041 286 729.003 286.832Z" fill="white"/>
<path d="M362.067 69.7695C385.37 77.5372 404.285 116.15 416.332 136.955C420.513 145.412 423.873 153.792 426.669 162.796C427.533 165.509 427.533 165.509 428.415 168.277C439.151 208.08 429.833 247.736 411.053 283.319C398.757 304.426 383.712 323.126 367.235 341.097C354.69 335.658 348.659 326.589 340.587 315.902C338.352 312.946 338.352 312.946 336.071 309.929C307.714 271.561 293.226 231.676 297.465 183.469C304.706 137.03 331.234 103.628 362.067 69.7695Z" fill="white"/>
</svg>
